<svg width="27" height="37" viewBox="0 0 27 37" fill="none" xmlns="http://www.w3.org/2000/svg">
<path d="M11.7679 11.1113C12.5378 9.77799 14.4622 9.77799 15.2321 11.1113L21.7272 22.3613C22.497 23.6947 21.5348 25.3613 19.9952 25.3613H7.00481C5.46521 25.3613 4.50296 23.6947 5.27276 22.3613L11.7679 11.1113Z" stroke="#FF0000" stroke-width="2"/>
<path d="M14.6083 14.3841H12.712L12.8825 20.4949H14.4421L14.6083 14.3841ZM13.6623 23.2221C14.2077 23.2221 14.6808 22.7662 14.685 22.1994C14.6808 21.6412 14.2077 21.1852 13.6623 21.1852C13.0998 21.1852 12.6353 21.6412 12.6396 22.1994C12.6353 22.7662 13.0998 23.2221 13.6623 23.2221Z" fill="#FF0000"/>
</svg>
